<svg viewBox="0 0 1920 1080" xmlns="http://www.w3.org/2000/svg">
  <defs>
    <linearGradient id="bgGradient" x1="0%" y1="0%" x2="100%" y2="100%">
      <stop offset="0%" style="stop-color:#0F172A"/>
      <stop offset="100%" style="stop-color:#1E293B"/>
    </linearGradient>
    <linearGradient id="accentGradient" x1="0%" y1="0%" x2="100%" y2="0%">
      <stop offset="0%" style="stop-color:#14B8A6"/>
      <stop offset="100%" style="stop-color:#22C55E"/>
    </linearGradient>
    <linearGradient id="tealGradient" x1="0%" y1="0%" x2="0%" y2="100%">
      <stop offset="0%" style="stop-color:#14B8A6"/>
      <stop offset="100%" style="stop-color:#0D9488"/>
    </linearGradient>
    <linearGradient id="greenGradient" x1="0%" y1="0%" x2="0%" y2="100%">
      <stop offset="0%" style="stop-color:#22C55E"/>
      <stop offset="100%" style="stop-color:#16A34A"/>
    </linearGradient>
    <linearGradient id="blueGradient" x1="0%" y1="0%" x2="0%" y2="100%">
      <stop offset="0%" style="stop-color:#3B82F6"/>
      <stop offset="100%" style="stop-color:#2563EB"/>
    </linearGradient>
  </defs>

  <!-- Background -->
  <rect width="1920" height="1080" fill="url(#bgGradient)"/>

  <!-- Slide Title -->
  <text x="100" y="120" font-family="system-ui, -apple-system, sans-serif" font-size="48" font-weight="700" fill="#FFFFFF">Our Solution</text>
  <rect x="100" y="140" width="220" height="4" fill="url(#accentGradient)" rx="2"/>
  <text x="100" y="195" font-family="system-ui, -apple-system, sans-serif" font-size="28" fill="#9CA3AF">Vertically integrated property investment platform</text>

  <!-- Three service pillars -->
  <!-- Pillar 1: Source -->
  <rect x="100" y="260" width="540" height="480" fill="#1E293B" rx="16"/>
  <rect x="100" y="260" width="540" height="80" fill="url(#tealGradient)" rx="16"/>
  <rect x="100" y="320" width="540" height="20" fill="#1E293B"/>
  <text x="370" y="315" font-family="system-ui, -apple-system, sans-serif" font-size="32" font-weight="600" fill="#FFFFFF" text-anchor="middle">SOURCE</text>

  <text x="370" y="400" font-family="system-ui, -apple-system, sans-serif" font-size="56" font-weight="700" fill="#14B8A6" text-anchor="middle">Find It</text>

  <circle cx="150" cy="480" r="5" fill="#14B8A6"/>
  <text x="180" y="490" font-family="system-ui, -apple-system, sans-serif" font-size="24" fill="#FFFFFF">Curated investment properties</text>

  <circle cx="150" cy="540" r="5" fill="#14B8A6"/>
  <text x="180" y="550" font-family="system-ui, -apple-system, sans-serif" font-size="24" fill="#FFFFFF">Verified ROI calculations</text>

  <circle cx="150" cy="600" r="5" fill="#14B8A6"/>
  <text x="180" y="610" font-family="system-ui, -apple-system, sans-serif" font-size="24" fill="#FFFFFF">Due diligence completed</text>

  <circle cx="150" cy="660" r="5" fill="#14B8A6"/>
  <text x="180" y="670" font-family="system-ui, -apple-system, sans-serif" font-size="24" fill="#FFFFFF">Transaction support</text>

  <text x="370" y="720" font-family="system-ui, -apple-system, sans-serif" font-size="22" fill="#64748B" text-anchor="middle">3% sourcing fee</text>

  <!-- Pillar 2: Fill -->
  <rect x="690" y="260" width="540" height="480" fill="#1E293B" rx="16"/>
  <rect x="690" y="260" width="540" height="80" fill="url(#greenGradient)" rx="16"/>
  <rect x="690" y="320" width="540" height="20" fill="#1E293B"/>
  <text x="960" y="315" font-family="system-ui, -apple-system, sans-serif" font-size="32" font-weight="600" fill="#FFFFFF" text-anchor="middle">FILL</text>

  <text x="960" y="400" font-family="system-ui, -apple-system, sans-serif" font-size="56" font-weight="700" fill="#22C55E" text-anchor="middle">Tenant It</text>

  <circle cx="740" cy="480" r="5" fill="#22C55E"/>
  <text x="770" y="490" font-family="system-ui, -apple-system, sans-serif" font-size="24" fill="#FFFFFF">Find quality tenants</text>

  <circle cx="740" cy="540" r="5" fill="#22C55E"/>
  <text x="770" y="550" font-family="system-ui, -apple-system, sans-serif" font-size="24" fill="#FFFFFF">Credit and reference checks</text>

  <circle cx="740" cy="600" r="5" fill="#22C55E"/>
  <text x="770" y="610" font-family="system-ui, -apple-system, sans-serif" font-size="24" fill="#FFFFFF">Lease preparation</text>

  <circle cx="740" cy="660" r="5" fill="#22C55E"/>
  <text x="770" y="670" font-family="system-ui, -apple-system, sans-serif" font-size="24" fill="#FFFFFF">Move-in coordination</text>

  <text x="960" y="720" font-family="system-ui, -apple-system, sans-serif" font-size="22" fill="#64748B" text-anchor="middle">1 month rent placement fee</text>

  <!-- Pillar 3: Manage -->
  <rect x="1280" y="260" width="540" height="480" fill="#1E293B" rx="16"/>
  <rect x="1280" y="260" width="540" height="80" fill="url(#blueGradient)" rx="16"/>
  <rect x="1280" y="320" width="540" height="20" fill="#1E293B"/>
  <text x="1550" y="315" font-family="system-ui, -apple-system, sans-serif" font-size="32" font-weight="600" fill="#FFFFFF" text-anchor="middle">MANAGE</text>

  <text x="1550" y="400" font-family="system-ui, -apple-system, sans-serif" font-size="56" font-weight="700" fill="#3B82F6" text-anchor="middle">Run It</text>

  <circle cx="1330" cy="480" r="5" fill="#3B82F6"/>
  <text x="1360" y="490" font-family="system-ui, -apple-system, sans-serif" font-size="24" fill="#FFFFFF">Rent collection</text>

  <circle cx="1330" cy="540" r="5" fill="#3B82F6"/>
  <text x="1360" y="550" font-family="system-ui, -apple-system, sans-serif" font-size="24" fill="#FFFFFF">Maintenance coordination</text>

  <circle cx="1330" cy="600" r="5" fill="#3B82F6"/>
  <text x="1360" y="610" font-family="system-ui, -apple-system, sans-serif" font-size="24" fill="#FFFFFF">Tenant relations</text>

  <circle cx="1330" cy="660" r="5" fill="#3B82F6"/>
  <text x="1360" y="670" font-family="system-ui, -apple-system, sans-serif" font-size="24" fill="#FFFFFF">Monthly reporting</text>

  <text x="1550" y="720" font-family="system-ui, -apple-system, sans-serif" font-size="22" fill="#64748B" text-anchor="middle">8% monthly management fee</text>

  <!-- Flow arrows -->
  <path d="M650 500 L680 500" stroke="#14B8A6" stroke-width="3" fill="none"/>
  <polygon points="680,495 690,500 680,505" fill="#14B8A6"/>

  <path d="M1240 500 L1270 500" stroke="#22C55E" stroke-width="3" fill="none"/>
  <polygon points="1270,495 1280,500 1270,505" fill="#22C55E"/>

  <!-- Bottom tagline -->
  <rect x="100" y="800" width="1720" height="120" fill="#14B8A6" fill-opacity="0.1" rx="16" stroke="#14B8A6" stroke-width="1"/>
  <text x="960" y="870" font-family="system-ui, -apple-system, sans-serif" font-size="36" font-weight="600" fill="#FFFFFF" text-anchor="middle">One relationship. Full ownership. True passive income.</text>

  <!-- Slide number -->
  <text x="1870" y="1040" font-family="system-ui, -apple-system, sans-serif" font-size="24" fill="#475569" text-anchor="end">4</text>
</svg>