<svg viewBox="0 0 1920 1080" xmlns="http://www.w3.org/2000/svg">
  <defs>
    <linearGradient id="bgGradient" x1="0%" y1="0%" x2="100%" y2="100%">
      <stop offset="0%" style="stop-color:#0F172A"/>
      <stop offset="100%" style="stop-color:#1E293B"/>
    </linearGradient>
    <linearGradient id="accentGradient" x1="0%" y1="0%" x2="100%" y2="0%">
      <stop offset="0%" style="stop-color:#14B8A6"/>
      <stop offset="100%" style="stop-color:#22C55E"/>
    </linearGradient>
    <linearGradient id="tealGradient" x1="0%" y1="0%" x2="0%" y2="100%">
      <stop offset="0%" style="stop-color:#14B8A6"/>
      <stop offset="100%" style="stop-color:#0D9488"/>
    </linearGradient>
    <linearGradient id="greenGradient" x1="0%" y1="0%" x2="0%" y2="100%">
      <stop offset="0%" style="stop-color:#22C55E"/>
      <stop offset="100%" style="stop-color:#16A34A"/>
    </linearGradient>
  </defs>

  <!-- Background -->
  <rect width="1920" height="1080" fill="url(#bgGradient)"/>

  <!-- Slide Title -->
  <text x="100" y="120" font-family="system-ui, -apple-system, sans-serif" font-size="48" font-weight="700" fill="#FFFFFF">The Partnership</text>
  <rect x="100" y="140" width="280" height="4" fill="url(#accentGradient)" rx="2"/>
  <text x="100" y="195" font-family="system-ui, -apple-system, sans-serif" font-size="28" fill="#9CA3AF">What each party brings to the table</text>

  <!-- Left card: Ampersand -->
  <rect x="100" y="260" width="820" height="560" fill="#1E293B" rx="16"/>
  <rect x="100" y="260" width="820" height="80" fill="url(#tealGradient)" rx="16"/>
  <rect x="100" y="320" width="820" height="20" fill="#1E293B"/>
  <text x="510" y="315" font-family="system-ui, -apple-system, sans-serif" font-size="32" font-weight="600" fill="#FFFFFF" text-anchor="middle">Ampersand Brings</text>

  <circle cx="150" cy="410" r="6" fill="#14B8A6"/>
  <text x="185" y="420" font-family="system-ui, -apple-system, sans-serif" font-size="28" fill="#FFFFFF">Technology platform design and build</text>

  <circle cx="150" cy="480" r="6" fill="#14B8A6"/>
  <text x="185" y="490" font-family="system-ui, -apple-system, sans-serif" font-size="28" fill="#FFFFFF">Business model and strategy</text>

  <circle cx="150" cy="550" r="6" fill="#14B8A6"/>
  <text x="185" y="560" font-family="system-ui, -apple-system, sans-serif" font-size="28" fill="#FFFFFF">Systems thinking and process design</text>

  <circle cx="150" cy="620" r="6" fill="#14B8A6"/>
  <text x="185" y="630" font-family="system-ui, -apple-system, sans-serif" font-size="28" fill="#FFFFFF">Professional network access</text>

  <circle cx="150" cy="690" r="6" fill="#14B8A6"/>
  <text x="185" y="700" font-family="system-ui, -apple-system, sans-serif" font-size="28" fill="#FFFFFF">Seed capital contribution</text>

  <rect x="150" y="750" width="720" height="50" fill="#14B8A6" fill-opacity="0.15" rx="8"/>
  <text x="510" y="785" font-family="system-ui, -apple-system, sans-serif" font-size="24" fill="#14B8A6" text-anchor="middle">Build the machine</text>

  <!-- Right card: Partner -->
  <rect x="1000" y="260" width="820" height="560" fill="#1E293B" rx="16"/>
  <rect x="1000" y="260" width="820" height="80" fill="url(#greenGradient)" rx="16"/>
  <rect x="1000" y="320" width="820" height="20" fill="#1E293B"/>
  <text x="1410" y="315" font-family="system-ui, -apple-system, sans-serif" font-size="32" font-weight="600" fill="#FFFFFF" text-anchor="middle">Partner Brings</text>

  <circle cx="1050" cy="410" r="6" fill="#22C55E"/>
  <text x="1085" y="420" font-family="system-ui, -apple-system, sans-serif" font-size="28" fill="#FFFFFF">PPRA registration and compliance</text>

  <circle cx="1050" cy="480" r="6" fill="#22C55E"/>
  <text x="1085" y="490" font-family="system-ui, -apple-system, sans-serif" font-size="28" fill="#FFFFFF">Property industry expertise</text>

  <circle cx="1050" cy="550" r="6" fill="#22C55E"/>
  <text x="1085" y="560" font-family="system-ui, -apple-system, sans-serif" font-size="28" fill="#FFFFFF">Deal flow and sourcing network</text>

  <circle cx="1050" cy="620" r="6" fill="#22C55E"/>
  <text x="1085" y="630" font-family="system-ui, -apple-system, sans-serif" font-size="28" fill="#FFFFFF">Operational capability</text>

  <circle cx="1050" cy="690" r="6" fill="#22C55E"/>
  <text x="1085" y="700" font-family="system-ui, -apple-system, sans-serif" font-size="28" fill="#FFFFFF">Contractor and service provider network</text>

  <rect x="1050" y="750" width="720" height="50" fill="#22C55E" fill-opacity="0.15" rx="8"/>
  <text x="1410" y="785" font-family="system-ui, -apple-system, sans-serif" font-size="24" fill="#22C55E" text-anchor="middle">Run the machine</text>

  <!-- Bottom: JV structure -->
  <rect x="100" y="870" width="1720" height="100" fill="#14B8A6" fill-opacity="0.1" rx="16" stroke="#14B8A6" stroke-width="1"/>
  <text x="960" y="930" font-family="system-ui, -apple-system, sans-serif" font-size="32" font-weight="600" fill="#FFFFFF" text-anchor="middle">50/50 Joint Venture — Shared risk, shared reward, aligned incentives</text>

  <!-- Slide number -->
  <text x="1870" y="1040" font-family="system-ui, -apple-system, sans-serif" font-size="24" fill="#475569" text-anchor="end">6</text>
</svg>